<mxfile host="app.diagrams.net" agent="Mozilla/5.0 (Windows NT 10.0; Win64; x64) AppleWebKit/537.36 (KHTML, like Gecko) Chrome/131.0.0.0 Safari/537.36" version="24.8.9">
  <diagram name="Page-1" id="KYBEOu9XBSYTPjxAxg3D">
    <mxGraphModel dx="775" dy="399" grid="0" gridSize="10" guides="1" tooltips="1" connect="1" arrows="1" fold="1" page="1" pageScale="1" pageWidth="850" pageHeight="1100" math="0" shadow="0">
      <root>
        <mxCell id="0" />
        <mxCell id="1" parent="0" />
        <mxCell id="EiNdtSTXrSgdSuJbo3Na-2" value="&lt;b&gt;&lt;u&gt;ENCODER&lt;/u&gt;&lt;/b&gt;" style="text;html=1;align=center;verticalAlign=middle;whiteSpace=wrap;rounded=0;" vertex="1" parent="1">
          <mxGeometry x="265" y="100" width="60" height="30" as="geometry" />
        </mxCell>
        <mxCell id="EiNdtSTXrSgdSuJbo3Na-3" value="&lt;b&gt;&lt;u&gt;DECODER&lt;/u&gt;&lt;/b&gt;" style="text;html=1;align=center;verticalAlign=middle;whiteSpace=wrap;rounded=0;" vertex="1" parent="1">
          <mxGeometry x="508" y="100" width="60" height="30" as="geometry" />
        </mxCell>
        <mxCell id="EiNdtSTXrSgdSuJbo3Na-4" value="" style="endArrow=classic;html=1;rounded=0;entryX=0.5;entryY=1;entryDx=0;entryDy=0;exitX=0.494;exitY=-0.069;exitDx=0;exitDy=0;exitPerimeter=0;" edge="1" parent="1" source="EiNdtSTXrSgdSuJbo3Na-15" target="EiNdtSTXrSgdSuJbo3Na-5">
          <mxGeometry width="50" height="50" relative="1" as="geometry">
            <mxPoint x="220" y="380" as="sourcePoint" />
            <mxPoint x="187.5" y="440" as="targetPoint" />
          </mxGeometry>
        </mxCell>
        <mxCell id="EiNdtSTXrSgdSuJbo3Na-5" value="Pre-Trained&lt;div&gt;RESNET-50&lt;/div&gt;" style="rounded=0;whiteSpace=wrap;html=1;" vertex="1" parent="1">
          <mxGeometry x="160" y="319" width="120" height="40" as="geometry" />
        </mxCell>
        <mxCell id="EiNdtSTXrSgdSuJbo3Na-7" value="Feature Extractor" style="rounded=0;whiteSpace=wrap;html=1;" vertex="1" parent="1">
          <mxGeometry x="160" y="300" width="120" height="19" as="geometry" />
        </mxCell>
        <mxCell id="EiNdtSTXrSgdSuJbo3Na-8" value="Image Encoder" style="rounded=0;whiteSpace=wrap;html=1;" vertex="1" parent="1">
          <mxGeometry x="160" y="281" width="120" height="19" as="geometry" />
        </mxCell>
        <mxCell id="EiNdtSTXrSgdSuJbo3Na-10" value="" style="endArrow=classic;html=1;rounded=0;exitX=0.25;exitY=0;exitDx=0;exitDy=0;entryX=0.75;entryY=1;entryDx=0;entryDy=0;" edge="1" parent="1" source="EiNdtSTXrSgdSuJbo3Na-8" target="EiNdtSTXrSgdSuJbo3Na-14">
          <mxGeometry width="50" height="50" relative="1" as="geometry">
            <mxPoint x="190" y="260" as="sourcePoint" />
            <mxPoint x="190" y="250" as="targetPoint" />
          </mxGeometry>
        </mxCell>
        <mxCell id="EiNdtSTXrSgdSuJbo3Na-11" value="" style="endArrow=classic;html=1;rounded=0;exitX=0.75;exitY=0;exitDx=0;exitDy=0;entryX=0.25;entryY=1;entryDx=0;entryDy=0;" edge="1" parent="1" source="EiNdtSTXrSgdSuJbo3Na-8" target="EiNdtSTXrSgdSuJbo3Na-16">
          <mxGeometry width="50" height="50" relative="1" as="geometry">
            <mxPoint x="240" y="270" as="sourcePoint" />
            <mxPoint x="250" y="250" as="targetPoint" />
          </mxGeometry>
        </mxCell>
        <mxCell id="EiNdtSTXrSgdSuJbo3Na-14" value="ConvNet&lt;div&gt;Features&lt;/div&gt;" style="rounded=1;whiteSpace=wrap;html=1;fillColor=#dae8fc;strokeColor=#6c8ebf;" vertex="1" parent="1">
          <mxGeometry x="130" y="230" width="80" height="30" as="geometry" />
        </mxCell>
        <mxCell id="EiNdtSTXrSgdSuJbo3Na-15" value="Raw Image&lt;div&gt;[3, 224, 224]&lt;/div&gt;" style="rounded=1;whiteSpace=wrap;html=1;fillColor=#d5e8d4;strokeColor=#82b366;" vertex="1" parent="1">
          <mxGeometry x="175" y="380" width="90" height="40" as="geometry" />
        </mxCell>
        <mxCell id="EiNdtSTXrSgdSuJbo3Na-16" value="Encoded&lt;div&gt;Image&lt;/div&gt;" style="rounded=1;whiteSpace=wrap;html=1;fillColor=#dae8fc;strokeColor=#6c8ebf;" vertex="1" parent="1">
          <mxGeometry x="230" y="230" width="80" height="30" as="geometry" />
        </mxCell>
        <mxCell id="EiNdtSTXrSgdSuJbo3Na-17" value="LSTM&lt;div&gt;Decoder&lt;/div&gt;" style="rounded=0;whiteSpace=wrap;html=1;" vertex="1" parent="1">
          <mxGeometry x="488" y="280" width="100" height="79" as="geometry" />
        </mxCell>
        <mxCell id="EiNdtSTXrSgdSuJbo3Na-18" value="Caption Embeddings" style="rounded=1;whiteSpace=wrap;html=1;fillColor=#dae8fc;strokeColor=#6c8ebf;" vertex="1" parent="1">
          <mxGeometry x="488" y="380" width="100" height="40" as="geometry" />
        </mxCell>
        <mxCell id="EiNdtSTXrSgdSuJbo3Na-19" value="" style="endArrow=classic;html=1;rounded=0;exitX=0.5;exitY=0;exitDx=0;exitDy=0;entryX=0.5;entryY=1;entryDx=0;entryDy=0;" edge="1" parent="1" source="EiNdtSTXrSgdSuJbo3Na-18" target="EiNdtSTXrSgdSuJbo3Na-17">
          <mxGeometry width="50" height="50" relative="1" as="geometry">
            <mxPoint x="327" y="387" as="sourcePoint" />
            <mxPoint x="538" y="370" as="targetPoint" />
          </mxGeometry>
        </mxCell>
        <mxCell id="EiNdtSTXrSgdSuJbo3Na-20" value="Attention Mechanism" style="rounded=0;whiteSpace=wrap;html=1;" vertex="1" parent="1">
          <mxGeometry x="160" y="170" width="120" height="40" as="geometry" />
        </mxCell>
        <mxCell id="EiNdtSTXrSgdSuJbo3Na-21" value="" style="endArrow=classic;html=1;rounded=0;exitX=0.25;exitY=0;exitDx=0;exitDy=0;entryX=0.75;entryY=1;entryDx=0;entryDy=0;" edge="1" parent="1" source="EiNdtSTXrSgdSuJbo3Na-16" target="EiNdtSTXrSgdSuJbo3Na-20">
          <mxGeometry width="50" height="50" relative="1" as="geometry">
            <mxPoint x="260" y="291" as="sourcePoint" />
            <mxPoint x="260" y="270" as="targetPoint" />
          </mxGeometry>
        </mxCell>
        <mxCell id="EiNdtSTXrSgdSuJbo3Na-22" value="" style="endArrow=classic;html=1;rounded=0;exitX=0.75;exitY=0;exitDx=0;exitDy=0;entryX=0.25;entryY=1;entryDx=0;entryDy=0;" edge="1" parent="1" source="EiNdtSTXrSgdSuJbo3Na-14" target="EiNdtSTXrSgdSuJbo3Na-20">
          <mxGeometry width="50" height="50" relative="1" as="geometry">
            <mxPoint x="260" y="240" as="sourcePoint" />
            <mxPoint x="260" y="220" as="targetPoint" />
          </mxGeometry>
        </mxCell>
        <mxCell id="EiNdtSTXrSgdSuJbo3Na-25" value="Hidden State" style="rounded=1;whiteSpace=wrap;html=1;fillColor=#dae8fc;strokeColor=#6c8ebf;" vertex="1" parent="1">
          <mxGeometry x="315" y="324" width="80" height="30" as="geometry" />
        </mxCell>
        <mxCell id="EiNdtSTXrSgdSuJbo3Na-26" value="" style="endArrow=classic;html=1;rounded=0;exitX=1;exitY=0.5;exitDx=0;exitDy=0;entryX=0;entryY=0.5;entryDx=0;entryDy=0;" edge="1" parent="1" source="EiNdtSTXrSgdSuJbo3Na-5" target="EiNdtSTXrSgdSuJbo3Na-25">
          <mxGeometry width="50" height="50" relative="1" as="geometry">
            <mxPoint x="229" y="387" as="sourcePoint" />
            <mxPoint x="300" y="310" as="targetPoint" />
          </mxGeometry>
        </mxCell>
        <mxCell id="EiNdtSTXrSgdSuJbo3Na-28" value="" style="endArrow=classic;html=1;rounded=0;exitX=1;exitY=0.5;exitDx=0;exitDy=0;entryX=0;entryY=0.75;entryDx=0;entryDy=0;" edge="1" parent="1" source="EiNdtSTXrSgdSuJbo3Na-25" target="EiNdtSTXrSgdSuJbo3Na-17">
          <mxGeometry width="50" height="50" relative="1" as="geometry">
            <mxPoint x="290" y="349" as="sourcePoint" />
            <mxPoint x="320" y="349" as="targetPoint" />
          </mxGeometry>
        </mxCell>
        <mxCell id="EiNdtSTXrSgdSuJbo3Na-29" value="Attention-Weighted&lt;div&gt;Encodings&lt;/div&gt;" style="rounded=1;whiteSpace=wrap;html=1;fillColor=#dae8fc;strokeColor=#6c8ebf;" vertex="1" parent="1">
          <mxGeometry x="300" y="170" width="110" height="40" as="geometry" />
        </mxCell>
        <mxCell id="EiNdtSTXrSgdSuJbo3Na-30" value="" style="endArrow=classic;html=1;rounded=0;entryX=0;entryY=0.5;entryDx=0;entryDy=0;exitX=1;exitY=0.5;exitDx=0;exitDy=0;" edge="1" parent="1" source="EiNdtSTXrSgdSuJbo3Na-20" target="EiNdtSTXrSgdSuJbo3Na-29">
          <mxGeometry width="50" height="50" relative="1" as="geometry">
            <mxPoint x="220" y="130" as="sourcePoint" />
            <mxPoint x="240" y="140" as="targetPoint" />
          </mxGeometry>
        </mxCell>
        <mxCell id="EiNdtSTXrSgdSuJbo3Na-31" value="" style="endArrow=classic;html=1;rounded=0;entryX=0;entryY=0.25;entryDx=0;entryDy=0;" edge="1" parent="1" target="EiNdtSTXrSgdSuJbo3Na-17">
          <mxGeometry width="50" height="50" relative="1" as="geometry">
            <mxPoint x="430" y="300" as="sourcePoint" />
            <mxPoint x="390" y="290.24" as="targetPoint" />
          </mxGeometry>
        </mxCell>
        <mxCell id="EiNdtSTXrSgdSuJbo3Na-32" value="" style="endArrow=none;html=1;rounded=0;" edge="1" parent="1">
          <mxGeometry width="50" height="50" relative="1" as="geometry">
            <mxPoint x="430" y="300" as="sourcePoint" />
            <mxPoint x="430" y="190" as="targetPoint" />
          </mxGeometry>
        </mxCell>
        <mxCell id="EiNdtSTXrSgdSuJbo3Na-33" value="" style="endArrow=none;html=1;rounded=0;entryX=1;entryY=0.5;entryDx=0;entryDy=0;" edge="1" parent="1" target="EiNdtSTXrSgdSuJbo3Na-29">
          <mxGeometry width="50" height="50" relative="1" as="geometry">
            <mxPoint x="430" y="190" as="sourcePoint" />
            <mxPoint x="390" y="140" as="targetPoint" />
          </mxGeometry>
        </mxCell>
        <mxCell id="EiNdtSTXrSgdSuJbo3Na-35" value="" style="endArrow=none;dashed=1;html=1;strokeWidth=2;rounded=0;" edge="1" parent="1">
          <mxGeometry width="50" height="50" relative="1" as="geometry">
            <mxPoint x="454" y="440" as="sourcePoint" />
            <mxPoint x="454" y="90" as="targetPoint" />
          </mxGeometry>
        </mxCell>
        <mxCell id="EiNdtSTXrSgdSuJbo3Na-36" value="Predictions" style="rounded=1;whiteSpace=wrap;html=1;fillColor=#d5e8d4;strokeColor=#82b366;" vertex="1" parent="1">
          <mxGeometry x="488" y="220" width="100" height="40" as="geometry" />
        </mxCell>
        <mxCell id="EiNdtSTXrSgdSuJbo3Na-37" value="" style="endArrow=classic;html=1;rounded=0;exitX=0.5;exitY=0;exitDx=0;exitDy=0;" edge="1" parent="1" source="EiNdtSTXrSgdSuJbo3Na-17" target="EiNdtSTXrSgdSuJbo3Na-36">
          <mxGeometry width="50" height="50" relative="1" as="geometry">
            <mxPoint x="548" y="270" as="sourcePoint" />
            <mxPoint x="548" y="369" as="targetPoint" />
          </mxGeometry>
        </mxCell>
      </root>
    </mxGraphModel>
  </diagram>
</mxfile>
